<svg xmlns="http://www.w3.org/2000/svg" width="37.5" height="36" viewBox="0 0 37.5 36">
    <path d="M33.75 24.513a3.684 3.684 0 0 0-3.474 2.447h-2.921a.708.708 0 0 1-.711-.711v-7.341h1.5a6.947 6.947 0 0 0 0-13.895 9.189 9.189 0 0 0-1.5.158A9.454 9.454 0 0 0 9.039 7.184a4.372 4.372 0 0 0-.75-.079 5.882 5.882 0 1 0 0 11.763h2.566v7.421a.708.708 0 0 1-.711.711h-2.92a3.732 3.732 0 1 0-3.474 5.053 3.684 3.684 0 0 0 3.474-2.447h2.921a3.268 3.268 0 0 0 3.276-3.276v-7.422h4.026v9.868A3.732 3.732 0 1 0 22.5 32.25a3.684 3.684 0 0 0-2.447-3.474v-9.868h4.026v7.382a3.268 3.268 0 0 0 3.276 3.276h2.921a3.732 3.732 0 1 0 3.474-5.053zm-15-8.921a1.342 1.342 0 1 1 1.342-1.342 1.331 1.331 0 0 1-1.342 1.342zm3.513-3.711a.763.763 0 0 1-1.105 0 3.407 3.407 0 0 0-4.776 0 .81.81 0 1 1-1.145-1.145 5.1 5.1 0 0 1 7.066 0 .85.85 0 0 1-.04 1.146zm2.566-2.566a.763.763 0 0 1-1.105 0 7.016 7.016 0 0 0-4.974-2.053 6.921 6.921 0 0 0-4.974 2.053.81.81 0 0 1-1.145-1.145 8.577 8.577 0 0 1 12.158 0 .778.778 0 0 1 .04 1.146z" data-name="Path 315"/>
</svg>
