<svg xmlns="http://www.w3.org/2000/svg" width="34.394" height="20.507" viewBox="0 0 34.394 20.507">
    <g id="prefix__noun_Cloud_Computing_3414351" data-name="noun_Cloud Computing_3414351" transform="translate(-18.42 -181.91)">
        <g id="prefix__Group_573" data-name="Group 573" transform="translate(18.42 181.91)">
            <path id="prefix__Path_316" fill-rule="evenodd" d="M25.338 186.031a6.937 6.937 0 0 1 1.528.169 7.666 7.666 0 0 1 13.92.335 6.629 6.629 0 0 1 2.155-.357 6.108 6.108 0 0 1 6.106 4.711 4.527 4.527 0 0 1-1.09 8.977h-7.28a7.724 7.724 0 1 0-13.77 0h-1.569a6.918 6.918 0 0 1 0-13.835zm8.454 4.279a6.054 6.054 0 1 1-6.053 6.054 6.054 6.054 0 0 1 6.053-6.054zm-2.217 5.533a.9.9 0 0 1-1.155-1.379l2.789-2.334a.9.9 0 0 1 1.167 0l2.789 2.334a.9.9 0 0 1-1.155 1.379l-1.316-1.1v5.183a.9.9 0 0 1-1.8 0v-5.183z" data-name="Path 316" transform="translate(-18.42 -181.91)"/>
        </g>
    </g>
</svg>
