<svg xmlns="http://www.w3.org/2000/svg" width="38" height="32.3" viewBox="0 0 38 32.3">
    <g>
        <path d="M38.733 6.5H3.267A1.267 1.267 0 0 0 2 7.767v29.766A1.267 1.267 0 0 0 3.267 38.8h35.466A1.267 1.267 0 0 0 40 37.533V7.767A1.267 1.267 0 0 0 38.733 6.5zM14.667 9.983A1.267 1.267 0 1 1 13.4 11.25a1.267 1.267 0 0 1 1.267-1.267zm-3.8 0A1.267 1.267 0 1 1 9.6 11.25a1.267 1.267 0 0 1 1.267-1.267zm-3.8 0A1.267 1.267 0 1 1 5.8 11.25a1.267 1.267 0 0 1 1.267-1.267zm30.4 26.283H4.533V16.032h32.934z" data-name="Path 307" transform="translate(-2 -6.5)"/>
        <path d="M14.838 30.358a1.267 1.267 0 1 0 1.786-1.786l-2.749-2.755 2.749-2.755a1.267 1.267 0 0 0-1.786-1.786l-3.645 3.646a1.267 1.267 0 0 0 0 1.786z" data-name="Path 308" transform="translate(-2 -6.5)"/>
        <path d="M25.377 30.358a1.267 1.267 0 0 0 1.786 0l3.648-3.648a1.267 1.267 0 0 0 0-1.786l-3.648-3.648a1.267 1.267 0 1 0-1.786 1.786l2.746 2.755-2.746 2.755a1.267 1.267 0 0 0 0 1.786z" data-name="Path 309" transform="translate(-2 -6.5)"/>
        <path d="M18.745 32.074a1.317 1.317 0 0 0 .431.076 1.267 1.267 0 0 0 1.191-.836l3.648-10.133a1.267 1.267 0 0 0-2.381-.861l-3.645 10.133a1.267 1.267 0 0 0 .756 1.621z" data-name="Path 310" transform="translate(-2 -6.5)"/>
    </g>
</svg>
